<mxfile host="65bd71144e">
    <diagram id="ewMzsGyjwjFC5L_9RoAt" name="Page-1">
        <mxGraphModel dx="3231" dy="2369" grid="1" gridSize="10" guides="1" tooltips="1" connect="1" arrows="1" fold="1" page="1" pageScale="1" pageWidth="850" pageHeight="1100" math="0" shadow="0">
            <root>
                <mxCell id="0"/>
                <mxCell id="1" parent="0"/>
                <mxCell id="2" value="Customer" style="shape=umlActor;html=1;verticalLabelPosition=bottom;verticalAlign=top;align=center;" parent="1" vertex="1">
                    <mxGeometry x="60" y="680" width="30" height="60" as="geometry"/>
                </mxCell>
                <mxCell id="3" value="Admin" style="shape=umlActor;html=1;verticalLabelPosition=bottom;verticalAlign=top;align=center;" parent="1" vertex="1">
                    <mxGeometry x="60" y="830" width="30" height="60" as="geometry"/>
                </mxCell>
                <mxCell id="4" value="BusStopMenager" style="shape=umlActor;html=1;verticalLabelPosition=bottom;verticalAlign=top;align=center;" parent="1" vertex="1">
                    <mxGeometry x="60" y="1000" width="30" height="60" as="geometry"/>
                </mxCell>
                <mxCell id="6" value="" style="edgeStyle=none;html=1;endArrow=block;endFill=0;endSize=12;verticalAlign=bottom;" parent="1" edge="1">
                    <mxGeometry width="160" relative="1" as="geometry">
                        <mxPoint x="30" y="-10" as="sourcePoint"/>
                        <mxPoint x="150" y="-10" as="targetPoint"/>
                    </mxGeometry>
                </mxCell>
                <mxCell id="43" value="" style="swimlane;startSize=0;" vertex="1" parent="1">
                    <mxGeometry x="180" y="-480" width="520" height="2340" as="geometry"/>
                </mxCell>
                <mxCell id="44" value="" style="swimlane;startSize=0;" vertex="1" parent="43">
                    <mxGeometry x="21" y="1840" width="480" height="490" as="geometry"/>
                </mxCell>
                <mxCell id="50" value="&lt;font style=&quot;font-size: 18px;&quot;&gt;&lt;b&gt;&lt;i&gt;Bus Menagment System&lt;/i&gt;&lt;/b&gt;&lt;/font&gt;" style="text;html=1;align=center;verticalAlign=middle;resizable=0;points=[];autosize=1;strokeColor=none;fillColor=none;" vertex="1" parent="44">
                    <mxGeometry x="245" y="20" width="230" height="40" as="geometry"/>
                </mxCell>
                <mxCell id="33" value="&lt;span style=&quot;text-align: left;&quot;&gt;setLeavingTimeToJourny&lt;/span&gt;&lt;span style=&quot;text-align: left;&quot;&gt;&lt;br&gt;&lt;/span&gt;" style="ellipse;whiteSpace=wrap;html=1;" parent="44" vertex="1">
                    <mxGeometry x="59" y="80" width="170" height="80" as="geometry"/>
                </mxCell>
                <mxCell id="29" value="&lt;span style=&quot;text-align: left;&quot;&gt;CreateJourny&lt;/span&gt;&lt;span style=&quot;text-align: left;&quot;&gt;&lt;br&gt;&lt;/span&gt;" style="ellipse;whiteSpace=wrap;html=1;" parent="44" vertex="1">
                    <mxGeometry x="229" y="150" width="140" height="70" as="geometry"/>
                </mxCell>
                <mxCell id="30" value="&lt;span style=&quot;text-align: left;&quot;&gt;setArrivalTimeToJourny&lt;/span&gt;&lt;span style=&quot;text-align: left;&quot;&gt;&lt;br&gt;&lt;/span&gt;" style="ellipse;whiteSpace=wrap;html=1;" parent="44" vertex="1">
                    <mxGeometry x="89" y="220" width="140" height="70" as="geometry"/>
                </mxCell>
                <mxCell id="37" value="&lt;span style=&quot;text-align: left;&quot;&gt;IsBusLeftFromBusStop&lt;/span&gt;&lt;span style=&quot;text-align: left;&quot;&gt;&lt;br&gt;&lt;/span&gt;" style="ellipse;whiteSpace=wrap;html=1;" parent="44" vertex="1">
                    <mxGeometry x="229" y="290" width="150" height="70" as="geometry"/>
                </mxCell>
                <mxCell id="39" value="&lt;span style=&quot;text-align: left;&quot;&gt;GetTicketById&lt;/span&gt;&lt;span style=&quot;text-align: left;&quot;&gt;&lt;br&gt;&lt;/span&gt;" style="ellipse;whiteSpace=wrap;html=1;" parent="44" vertex="1">
                    <mxGeometry x="99" y="350" width="130" height="70" as="geometry"/>
                </mxCell>
                <mxCell id="22" value="&lt;span style=&quot;text-align: left;&quot;&gt;GetAllTicketsInBus&lt;/span&gt;&lt;span style=&quot;text-align: left;&quot;&gt;&lt;br&gt;&lt;/span&gt;" style="ellipse;whiteSpace=wrap;html=1;" parent="44" vertex="1">
                    <mxGeometry x="229" y="410" width="140" height="70" as="geometry"/>
                </mxCell>
                <mxCell id="45" value="" style="swimlane;startSize=0;" vertex="1" parent="43">
                    <mxGeometry x="20" y="860" width="480" height="520" as="geometry"/>
                </mxCell>
                <mxCell id="49" value="&lt;font style=&quot;font-size: 18px;&quot;&gt;&lt;b&gt;&lt;i&gt;Menagment System&lt;/i&gt;&lt;/b&gt;&lt;/font&gt;" style="text;html=1;align=center;verticalAlign=middle;resizable=0;points=[];autosize=1;strokeColor=none;fillColor=none;" vertex="1" parent="45">
                    <mxGeometry x="275" y="20" width="190" height="40" as="geometry"/>
                </mxCell>
                <mxCell id="25" value="&lt;span style=&quot;text-align: left;&quot;&gt;GetAllProfit&lt;/span&gt;&lt;span style=&quot;text-align: left;&quot;&gt;&lt;br&gt;&lt;/span&gt;" style="ellipse;whiteSpace=wrap;html=1;" parent="45" vertex="1">
                    <mxGeometry x="90" y="20" width="140" height="70" as="geometry"/>
                </mxCell>
                <mxCell id="24" value="&lt;span style=&quot;text-align: left;&quot;&gt;GetAllJournies&lt;/span&gt;&lt;span style=&quot;text-align: left;&quot;&gt;&lt;br&gt;&lt;/span&gt;" style="ellipse;whiteSpace=wrap;html=1;" parent="45" vertex="1">
                    <mxGeometry x="230" y="90" width="140" height="70" as="geometry"/>
                </mxCell>
                <mxCell id="19" value="&lt;span style=&quot;text-align: left;&quot;&gt;GetAllCustomers&lt;/span&gt;" style="ellipse;whiteSpace=wrap;html=1;" parent="45" vertex="1">
                    <mxGeometry x="90" y="150" width="140" height="70" as="geometry"/>
                </mxCell>
                <mxCell id="21" value="&lt;span style=&quot;text-align: left;&quot;&gt;GetAllTickets&lt;br&gt;&lt;/span&gt;" style="ellipse;whiteSpace=wrap;html=1;" parent="45" vertex="1">
                    <mxGeometry x="230" y="220" width="140" height="70" as="geometry"/>
                </mxCell>
                <mxCell id="20" value="&lt;span style=&quot;text-align: left;&quot;&gt;GetAllTicketSellers&lt;/span&gt;" style="ellipse;whiteSpace=wrap;html=1;" parent="45" vertex="1">
                    <mxGeometry x="90" y="290" width="140" height="70" as="geometry"/>
                </mxCell>
                <mxCell id="16" value="&lt;span style=&quot;text-align: left;&quot;&gt;CreateTicketSeller&lt;/span&gt;" style="ellipse;whiteSpace=wrap;html=1;" parent="45" vertex="1">
                    <mxGeometry x="230" y="360" width="140" height="70" as="geometry"/>
                </mxCell>
                <mxCell id="23" value="&lt;span style=&quot;text-align: left;&quot;&gt;GetProfitFromBus&lt;/span&gt;&lt;span style=&quot;text-align: left;&quot;&gt;&lt;br&gt;&lt;/span&gt;" style="ellipse;whiteSpace=wrap;html=1;" parent="45" vertex="1">
                    <mxGeometry x="90" y="430" width="140" height="70" as="geometry"/>
                </mxCell>
                <mxCell id="46" value="" style="swimlane;startSize=0;" vertex="1" parent="43">
                    <mxGeometry x="20" y="80" width="480" height="190" as="geometry"/>
                </mxCell>
                <mxCell id="48" value="&lt;font style=&quot;font-size: 18px;&quot;&gt;&lt;b&gt;&lt;i&gt;Booking System&lt;/i&gt;&lt;/b&gt;&lt;/font&gt;" style="text;html=1;align=center;verticalAlign=middle;resizable=0;points=[];autosize=1;strokeColor=none;fillColor=none;" vertex="1" parent="46">
                    <mxGeometry x="280" y="10" width="160" height="40" as="geometry"/>
                </mxCell>
                <mxCell id="11" value="BookTicket" style="ellipse;whiteSpace=wrap;html=1;" parent="46" vertex="1">
                    <mxGeometry x="90" y="40" width="140" height="70" as="geometry"/>
                </mxCell>
                <mxCell id="38" value="&lt;span style=&quot;text-align: left;&quot;&gt;GenerateTicket&lt;/span&gt;&lt;span style=&quot;text-align: left;&quot;&gt;&lt;br&gt;&lt;/span&gt;" style="ellipse;whiteSpace=wrap;html=1;" parent="46" vertex="1">
                    <mxGeometry x="230" y="110" width="140" height="70" as="geometry"/>
                </mxCell>
                <mxCell id="47" value="&lt;font style=&quot;font-size: 18px;&quot;&gt;&lt;b&gt;&lt;i&gt;Transportation System&lt;/i&gt;&lt;/b&gt;&lt;/font&gt;" style="text;html=1;align=center;verticalAlign=middle;resizable=0;points=[];autosize=1;strokeColor=none;fillColor=none;" vertex="1" parent="43">
                    <mxGeometry x="250" y="15" width="220" height="40" as="geometry"/>
                </mxCell>
                <mxCell id="10" value="GetBusStops" style="ellipse;whiteSpace=wrap;html=1;" parent="43" vertex="1">
                    <mxGeometry x="100" y="1480" width="151" height="70" as="geometry"/>
                </mxCell>
                <mxCell id="28" value="&lt;span style=&quot;text-align: left;&quot;&gt;GetAllBusesInBusStop&lt;/span&gt;&lt;span style=&quot;text-align: left;&quot;&gt;&lt;br&gt;&lt;/span&gt;" style="ellipse;whiteSpace=wrap;html=1;" parent="43" vertex="1">
                    <mxGeometry x="251" y="1540" width="140" height="70" as="geometry"/>
                </mxCell>
                <mxCell id="32" value="&lt;span style=&quot;text-align: left;&quot;&gt;getArrivalTimeFromJourny&lt;/span&gt;&lt;span style=&quot;text-align: left;&quot;&gt;&lt;br&gt;&lt;/span&gt;" style="ellipse;whiteSpace=wrap;html=1;" parent="43" vertex="1">
                    <mxGeometry x="80" y="1610" width="170" height="80" as="geometry"/>
                </mxCell>
                <mxCell id="34" value="&lt;span style=&quot;text-align: left;&quot;&gt;getAllBusesInBusStop&lt;/span&gt;&lt;span style=&quot;text-align: left;&quot;&gt;&lt;br&gt;&lt;/span&gt;" style="ellipse;whiteSpace=wrap;html=1;" parent="43" vertex="1">
                    <mxGeometry x="250" y="1690" width="140" height="70" as="geometry"/>
                </mxCell>
                <mxCell id="36" value="&lt;span style=&quot;text-align: left;&quot;&gt;getNearestBusByDistenation&lt;/span&gt;&lt;span style=&quot;text-align: left;&quot;&gt;&lt;br&gt;&lt;/span&gt;" style="ellipse;whiteSpace=wrap;html=1;" parent="43" vertex="1">
                    <mxGeometry x="80" y="1750" width="170" height="80" as="geometry"/>
                </mxCell>
                <mxCell id="18" value="&lt;span style=&quot;text-align: left;&quot;&gt;GetAllBuses&lt;/span&gt;" style="ellipse;whiteSpace=wrap;html=1;" parent="43" vertex="1">
                    <mxGeometry x="251" y="780" width="140" height="70" as="geometry"/>
                </mxCell>
                <mxCell id="31" value="&lt;span style=&quot;text-align: left;&quot;&gt;getLeavingTimeFromJourny&lt;/span&gt;&lt;span style=&quot;text-align: left;&quot;&gt;&lt;br&gt;&lt;/span&gt;" style="ellipse;whiteSpace=wrap;html=1;" parent="43" vertex="1">
                    <mxGeometry x="250" y="1410" width="170" height="80" as="geometry"/>
                </mxCell>
                <mxCell id="14" value="&lt;span style=&quot;text-align: left;&quot;&gt;LogIn&lt;/span&gt;" style="ellipse;whiteSpace=wrap;html=1;" parent="43" vertex="1">
                    <mxGeometry x="111" y="710" width="140" height="70" as="geometry"/>
                </mxCell>
                <mxCell id="15" value="&lt;span style=&quot;text-align: left;&quot;&gt;LogOut&lt;/span&gt;" style="ellipse;whiteSpace=wrap;html=1;" parent="43" vertex="1">
                    <mxGeometry x="251" y="640" width="140" height="70" as="geometry"/>
                </mxCell>
                <mxCell id="13" value="&lt;span style=&quot;text-align: left;&quot;&gt;SignUp&lt;/span&gt;" style="ellipse;whiteSpace=wrap;html=1;" parent="43" vertex="1">
                    <mxGeometry x="111" y="580" width="140" height="70" as="geometry"/>
                </mxCell>
                <mxCell id="9" value="GetAllTickets" style="ellipse;whiteSpace=wrap;html=1;" parent="43" vertex="1">
                    <mxGeometry x="251" y="510" width="140" height="70" as="geometry"/>
                </mxCell>
                <mxCell id="5" value="GetDistenace" style="ellipse;whiteSpace=wrap;html=1;" parent="43" vertex="1">
                    <mxGeometry x="106" y="440" width="140" height="70" as="geometry"/>
                </mxCell>
                <mxCell id="12" value="&lt;span style=&quot;text-align: left;&quot;&gt;NotifyIfBusArrived&lt;/span&gt;" style="ellipse;whiteSpace=wrap;html=1;" parent="43" vertex="1">
                    <mxGeometry x="251" y="370" width="140" height="70" as="geometry"/>
                </mxCell>
                <mxCell id="35" value="&lt;span style=&quot;text-align: left;&quot;&gt;getBusesByDistenation&lt;/span&gt;&lt;span style=&quot;text-align: left;&quot;&gt;&lt;br&gt;&lt;/span&gt;" style="ellipse;whiteSpace=wrap;html=1;" parent="43" vertex="1">
                    <mxGeometry x="111" y="290" width="140" height="70" as="geometry"/>
                </mxCell>
            </root>
        </mxGraphModel>
    </diagram>
</mxfile>